<svg data-v-423bf9ae="" xmlns="http://www.w3.org/2000/svg" viewBox="0 0 515.5535308967966 60" class="font"><!----><!----><!----><g data-v-423bf9ae="" id="be7a8df5-9550-4d40-b10b-8028ee828fa3" fill="white" transform="matrix(5.4446458718365625,0,0,5.4446458718365625,-1.4700602379253382,-7.622503733132845)"><path d="M9.62 11.73L9.62 11.73Q9.66 11.82 9.66 11.91L9.66 11.91L9.66 11.91Q9.66 12.08 9.53 12.21L9.53 12.21L9.53 12.21Q9.41 12.33 9.24 12.33L9.24 12.33L9.24 12.33Q8.96 12.33 8.85 12.07L8.85 12.07L7.81 9.59L2.11 9.59L1.08 12.07L1.08 12.07Q0.98 12.33 0.69 12.33L0.69 12.33L0.69 12.33Q0.49 12.33 0.38 12.21L0.38 12.21L0.38 12.21Q0.27 12.08 0.27 11.91L0.27 11.91L0.27 11.91Q0.27 11.82 0.31 11.73L0.31 11.73L4.55 1.69L4.55 1.69Q4.66 1.40 4.96 1.40L4.96 1.40L4.96 1.40Q5.24 1.40 5.36 1.69L5.36 1.69L9.62 11.73ZM2.44 8.83L7.49 8.83L4.96 2.79L2.44 8.83ZM18.09 1.40L18.09 1.40Q18.28 1.40 18.40 1.51L18.40 1.51L18.40 1.51Q18.51 1.62 18.51 1.82L18.51 1.82L18.51 8.55L18.51 8.58L18.51 8.58Q18.49 9.66 17.98 10.54L17.98 10.54L17.98 10.54Q17.46 11.42 16.57 11.92L16.57 11.92L16.57 11.92Q15.68 12.42 14.60 12.42L14.60 12.42L14.60 12.42Q13.50 12.42 12.60 11.91L12.60 11.91L12.60 11.91Q11.70 11.40 11.19 10.50L11.19 10.50L11.19 10.50Q10.68 9.60 10.68 8.50L10.68 8.50L10.68 8.50Q10.68 7.41 11.19 6.51L11.19 6.51L11.19 6.51Q11.70 5.61 12.60 5.10L12.60 5.10L12.60 5.10Q13.50 4.59 14.60 4.59L14.60 4.59L14.60 4.59Q15.60 4.59 16.40 5.02L16.40 5.02L16.40 5.02Q17.21 5.45 17.67 6.19L17.67 6.19L17.67 1.82L17.67 1.82Q17.67 1.62 17.79 1.51L17.79 1.51L17.79 1.51Q17.91 1.40 18.09 1.40L18.09 1.40ZM14.60 11.63L14.60 11.63Q15.47 11.63 16.17 11.22L16.17 11.22L16.17 11.22Q16.87 10.81 17.27 10.09L17.27 10.09L17.27 10.09Q17.67 9.38 17.67 8.50L17.67 8.50L17.67 8.50Q17.67 7.62 17.27 6.90L17.27 6.90L17.27 6.90Q16.87 6.19 16.17 5.78L16.17 5.78L16.17 5.78Q15.47 5.38 14.60 5.38L14.60 5.38L14.60 5.38Q13.73 5.38 13.03 5.78L13.03 5.78L13.03 5.78Q12.33 6.19 11.93 6.90L11.93 6.90L11.93 6.90Q11.52 7.62 11.52 8.50L11.52 8.50L11.52 8.50Q11.52 9.38 11.93 10.09L11.93 10.09L11.93 10.09Q12.33 10.81 13.03 11.22L13.03 11.22L13.03 11.22Q13.73 11.63 14.60 11.63L14.60 11.63ZM28.01 1.40L28.01 1.40Q28.21 1.40 28.32 1.51L28.32 1.51L28.32 1.51Q28.43 1.62 28.43 1.82L28.43 1.82L28.43 8.55L28.43 8.58L28.43 8.58Q28.42 9.66 27.90 10.54L27.90 10.54L27.90 10.54Q27.38 11.42 26.50 11.92L26.50 11.92L26.50 11.92Q25.61 12.42 24.53 12.42L24.53 12.42L24.53 12.42Q23.42 12.42 22.53 11.91L22.53 11.91L22.53 11.91Q21.63 11.40 21.12 10.50L21.12 10.50L21.12 10.50Q20.61 9.60 20.61 8.50L20.61 8.50L20.61 8.50Q20.61 7.41 21.12 6.51L21.12 6.51L21.12 6.51Q21.63 5.61 22.53 5.10L22.53 5.10L22.53 5.10Q23.42 4.59 24.53 4.59L24.53 4.59L24.53 4.59Q25.52 4.59 26.33 5.02L26.33 5.02L26.33 5.02Q27.13 5.45 27.59 6.19L27.59 6.19L27.59 1.82L27.59 1.82Q27.59 1.62 27.71 1.51L27.71 1.51L27.71 1.51Q27.83 1.40 28.01 1.40L28.01 1.40ZM24.53 11.63L24.53 11.63Q25.40 11.63 26.10 11.22L26.10 11.22L26.10 11.22Q26.80 10.81 27.20 10.09L27.20 10.09L27.20 10.09Q27.59 9.38 27.59 8.50L27.59 8.50L27.59 8.50Q27.59 7.62 27.20 6.90L27.20 6.90L27.20 6.90Q26.80 6.19 26.10 5.78L26.10 5.78L26.10 5.78Q25.40 5.38 24.53 5.38L24.53 5.38L24.53 5.38Q23.66 5.38 22.96 5.78L22.96 5.78L22.96 5.78Q22.26 6.19 21.85 6.90L21.85 6.90L21.85 6.90Q21.45 7.62 21.45 8.50L21.45 8.50L21.45 8.50Q21.45 9.38 21.85 10.09L21.85 10.09L21.85 10.09Q22.26 10.81 22.96 11.22L22.96 11.22L22.96 11.22Q23.66 11.63 24.53 11.63L24.53 11.63ZM34.20 4.59L34.20 4.59Q35.27 4.59 35.27 5.05L35.27 5.05L35.27 5.05Q35.27 5.12 35.25 5.17L35.25 5.17L35.25 5.17Q35.21 5.32 35.12 5.38L35.12 5.38L35.12 5.38Q35.03 5.45 34.87 5.45L34.87 5.45L34.87 5.45Q34.75 5.45 34.55 5.42L34.55 5.42L34.55 5.42Q34.34 5.39 34.20 5.39L34.20 5.39L34.20 5.39Q33.50 5.39 32.96 5.68L32.96 5.68L32.96 5.68Q32.41 5.98 32.10 6.50L32.10 6.50L32.10 6.50Q31.79 7.01 31.79 7.66L31.79 7.66L31.79 11.91L31.79 11.91Q31.79 12.10 31.68 12.21L31.68 12.21L31.68 12.21Q31.57 12.33 31.37 12.33L31.37 12.33L31.37 12.33Q31.19 12.33 31.07 12.21L31.07 12.21L31.07 12.21Q30.95 12.10 30.95 11.91L30.95 11.91L30.95 5.10L30.95 5.10Q30.95 4.90 31.07 4.79L31.07 4.79L31.07 4.79Q31.19 4.68 31.37 4.68L31.37 4.68L31.37 4.68Q31.57 4.68 31.68 4.79L31.68 4.79L31.68 4.79Q31.79 4.90 31.79 5.10L31.79 5.10L31.79 5.96L31.79 5.96Q32.20 5.32 32.83 4.96L32.83 4.96L32.83 4.96Q33.46 4.59 34.20 4.59L34.20 4.59ZM40.26 4.61L40.26 4.61Q41.29 4.61 42.09 5.09L42.09 5.09L42.09 5.09Q42.90 5.57 43.34 6.43L43.34 6.43L43.34 6.43Q43.79 7.28 43.79 8.37L43.79 8.37L43.79 8.37Q43.79 8.55 43.68 8.66L43.68 8.66L43.68 8.66Q43.57 8.76 43.39 8.76L43.39 8.76L37.52 8.76L37.52 8.76Q37.56 9.59 37.95 10.24L37.95 10.24L37.95 10.24Q38.35 10.89 39.00 11.26L39.00 11.26L39.00 11.26Q39.66 11.62 40.47 11.62L40.47 11.62L40.47 11.62Q41.02 11.62 41.57 11.43L41.57 11.43L41.57 11.43Q42.13 11.24 42.45 10.93L42.45 10.93L42.45 10.93Q42.59 10.82 42.74 10.82L42.74 10.82L42.74 10.82Q42.90 10.82 42.99 10.91L42.99 10.91L42.99 10.91Q43.15 11.03 43.15 11.20L43.15 11.20L43.15 11.20Q43.15 11.34 43.02 11.47L43.02 11.47L43.02 11.47Q42.57 11.87 41.85 12.14L41.85 12.14L41.85 12.14Q41.13 12.40 40.47 12.40L40.47 12.40L40.47 12.40Q39.37 12.40 38.51 11.91L38.51 11.91L38.51 11.91Q37.65 11.41 37.16 10.52L37.16 10.52L37.16 10.52Q36.67 9.63 36.67 8.51L36.67 8.51L36.67 8.51Q36.67 7.38 37.12 6.49L37.12 6.49L37.12 6.49Q37.58 5.60 38.40 5.10L38.40 5.10L38.40 5.10Q39.21 4.61 40.26 4.61L40.26 4.61ZM40.26 5.39L40.26 5.39Q39.17 5.39 38.42 6.12L38.42 6.12L38.42 6.12Q37.67 6.85 37.53 8.04L37.53 8.04L42.98 8.04L42.98 8.04Q42.88 6.85 42.14 6.12L42.14 6.12L42.14 6.12Q41.40 5.39 40.26 5.39L40.26 5.39ZM48.23 4.59L48.23 4.59Q49.99 4.59 50.90 5.85L50.90 5.85L50.90 5.85Q50.99 5.95 50.99 6.09L50.99 6.09L50.99 6.09Q50.99 6.29 50.76 6.41L50.76 6.41L50.76 6.41Q50.62 6.47 50.55 6.47L50.55 6.47L50.55 6.47Q50.34 6.47 50.20 6.29L50.20 6.29L50.20 6.29Q49.49 5.38 48.20 5.38L48.20 5.38L48.20 5.38Q47.35 5.38 46.84 5.75L46.84 5.75L46.84 5.75Q46.34 6.12 46.34 6.66L46.34 6.66L46.34 6.66Q46.34 7.22 46.82 7.56L46.82 7.56L46.82 7.56Q47.31 7.90 48.44 8.06L48.44 8.06L48.44 8.06Q49.92 8.27 50.58 8.86L50.58 8.86L50.58 8.86Q51.23 9.44 51.23 10.26L51.23 10.26L51.23 10.26Q51.23 10.91 50.81 11.40L50.81 11.40L50.81 11.40Q50.40 11.89 49.71 12.15L49.71 12.15L49.71 12.15Q49.03 12.42 48.22 12.42L48.22 12.42L48.22 12.42Q47.40 12.42 46.63 12.13L46.63 12.13L46.63 12.13Q45.86 11.84 45.36 11.26L45.36 11.26L45.36 11.26Q45.26 11.14 45.26 11.00L45.26 11.00L45.26 11.00Q45.26 10.81 45.44 10.68L45.44 10.68L45.44 10.68Q45.53 10.61 45.68 10.61L45.68 10.61L45.68 10.61Q45.88 10.61 46.00 10.77L46.00 10.77L46.00 10.77Q46.70 11.62 48.26 11.62L48.26 11.62L48.26 11.62Q49.36 11.62 49.89 11.23L49.89 11.23L49.89 11.23Q50.41 10.84 50.41 10.22L50.41 10.22L50.41 10.22Q50.41 9.11 48.27 8.81L48.27 8.81L48.27 8.81Q46.91 8.61 46.22 8.06L46.22 8.06L46.22 8.06Q45.53 7.52 45.53 6.75L45.53 6.75L45.53 6.75Q45.53 5.73 46.28 5.16L46.28 5.16L46.28 5.16Q47.03 4.59 48.23 4.59L48.23 4.59ZM55.73 4.59L55.73 4.59Q57.50 4.59 58.41 5.85L58.41 5.85L58.41 5.85Q58.49 5.95 58.49 6.09L58.49 6.09L58.49 6.09Q58.49 6.29 58.27 6.41L58.27 6.41L58.27 6.41Q58.13 6.47 58.06 6.47L58.06 6.47L58.06 6.47Q57.85 6.47 57.71 6.29L57.71 6.29L57.71 6.29Q56.99 5.38 55.71 5.38L55.71 5.38L55.71 5.38Q54.85 5.38 54.35 5.75L54.35 5.75L54.35 5.75Q53.84 6.12 53.84 6.66L53.84 6.66L53.84 6.66Q53.84 7.22 54.33 7.56L54.33 7.56L54.33 7.56Q54.81 7.90 55.94 8.06L55.94 8.06L55.94 8.06Q57.43 8.27 58.08 8.86L58.08 8.86L58.08 8.86Q58.73 9.44 58.73 10.26L58.73 10.26L58.73 10.26Q58.73 10.91 58.32 11.40L58.32 11.40L58.32 11.40Q57.90 11.89 57.22 12.15L57.22 12.15L57.22 12.15Q56.53 12.42 55.72 12.42L55.72 12.42L55.72 12.42Q54.91 12.42 54.14 12.13L54.14 12.13L54.14 12.13Q53.37 11.84 52.86 11.26L52.86 11.26L52.86 11.26Q52.77 11.14 52.77 11.00L52.77 11.00L52.77 11.00Q52.77 10.81 52.95 10.68L52.95 10.68L52.95 10.68Q53.03 10.61 53.19 10.61L53.19 10.61L53.19 10.61Q53.38 10.61 53.51 10.77L53.51 10.77L53.51 10.77Q54.21 11.62 55.76 11.62L55.76 11.62L55.76 11.62Q56.87 11.62 57.39 11.23L57.39 11.23L57.39 11.23Q57.92 10.84 57.92 10.22L57.92 10.22L57.92 10.22Q57.92 9.11 55.78 8.81L55.78 8.81L55.78 8.81Q54.42 8.61 53.73 8.06L53.73 8.06L53.73 8.06Q53.03 7.52 53.03 6.75L53.03 6.75L53.03 6.75Q53.03 5.73 53.78 5.16L53.78 5.16L53.78 5.16Q54.53 4.59 55.73 4.59L55.73 4.59ZM64.61 1.40L64.61 1.40Q65.38 1.40 66.04 1.74L66.04 1.74L66.04 1.74Q66.70 2.09 67.08 2.69L67.08 2.69L67.08 2.69Q67.47 3.29 67.47 4.05L67.47 4.05L67.47 4.05Q67.47 4.83 67.05 5.45L67.05 5.45L67.05 5.45Q66.63 6.08 65.93 6.38L65.93 6.38L65.93 6.38Q66.91 6.65 67.47 7.37L67.47 7.37L67.47 7.37Q68.04 8.09 68.04 9.16L68.04 9.16L68.04 9.16Q68.04 10.08 67.63 10.80L67.63 10.80L67.63 10.80Q67.21 11.52 66.48 11.93L66.48 11.93L66.48 11.93Q65.74 12.33 64.82 12.33L64.82 12.33L61.31 12.33L61.31 12.33Q61.05 12.33 60.91 12.23L60.91 12.23L60.91 12.23Q60.76 12.12 60.76 11.91L60.76 11.91L60.76 1.82L60.76 1.82Q60.76 1.62 60.88 1.51L60.88 1.51L60.88 1.51Q61.00 1.40 61.18 1.40L61.18 1.40L64.61 1.40ZM64.61 6.02L64.61 6.02Q65.51 6.02 66.07 5.47L66.07 5.47L66.07 5.47Q66.63 4.93 66.63 4.05L66.63 4.05L66.63 4.05Q66.63 3.19 66.07 2.72L66.07 2.72L66.07 2.72Q65.52 2.24 64.61 2.24L64.61 2.24L61.60 2.24L61.60 6.02L64.61 6.02ZM64.82 11.49L64.82 11.49Q65.51 11.49 66.05 11.19L66.05 11.19L66.05 11.19Q66.58 10.89 66.89 10.36L66.89 10.36L66.89 10.36Q67.20 9.83 67.20 9.16L67.20 9.16L67.20 9.16Q67.20 8.50 66.89 7.97L66.89 7.97L66.89 7.97Q66.58 7.45 66.05 7.15L66.05 7.15L66.05 7.15Q65.51 6.86 64.82 6.86L64.82 6.86L61.60 6.86L61.60 11.49L64.82 11.49ZM73.57 4.59L73.57 4.59Q74.66 4.59 75.56 5.10L75.56 5.10L75.56 5.10Q76.45 5.61 76.97 6.51L76.97 6.51L76.97 6.51Q77.48 7.41 77.48 8.51L77.48 8.51L77.48 8.51Q77.48 9.60 76.97 10.50L76.97 10.50L76.97 10.50Q76.45 11.40 75.56 11.91L75.56 11.91L75.56 11.91Q74.66 12.42 73.57 12.42L73.57 12.42L73.57 12.42Q72.46 12.42 71.57 11.91L71.57 11.91L71.57 11.91Q70.67 11.40 70.16 10.50L70.16 10.50L70.16 10.50Q69.65 9.60 69.65 8.51L69.65 8.51L69.65 8.51Q69.65 7.41 70.16 6.51L70.16 6.51L70.16 6.51Q70.67 5.61 71.57 5.10L71.57 5.10L71.57 5.10Q72.46 4.59 73.57 4.59L73.57 4.59ZM73.57 5.38L73.57 5.38Q72.70 5.38 72.00 5.79L72.00 5.79L72.00 5.79Q71.30 6.20 70.90 6.92L70.90 6.92L70.90 6.92Q70.49 7.63 70.49 8.51L70.49 8.51L70.49 8.51Q70.49 9.39 70.90 10.11L70.90 10.11L70.90 10.11Q71.30 10.82 72.00 11.23L72.00 11.23L72.00 11.23Q72.70 11.63 73.57 11.63L73.57 11.63L73.57 11.63Q74.44 11.63 75.14 11.23L75.14 11.23L75.14 11.23Q75.84 10.82 76.24 10.11L76.24 10.11L76.24 10.11Q76.64 9.39 76.64 8.51L76.64 8.51L76.64 8.51Q76.64 7.63 76.24 6.92L76.24 6.92L76.24 6.92Q75.84 6.20 75.14 5.79L75.14 5.79L75.14 5.79Q74.44 5.38 73.57 5.38L73.57 5.38ZM83.08 4.59L83.08 4.59Q84.17 4.59 85.06 5.10L85.06 5.10L85.06 5.10Q85.96 5.61 86.47 6.51L86.47 6.51L86.47 6.51Q86.98 7.41 86.98 8.51L86.98 8.51L86.98 8.51Q86.98 9.60 86.47 10.50L86.47 10.50L86.47 10.50Q85.96 11.40 85.06 11.91L85.06 11.91L85.06 11.91Q84.17 12.42 83.08 12.42L83.08 12.42L83.08 12.42Q81.97 12.42 81.07 11.91L81.07 11.91L81.07 11.91Q80.18 11.40 79.67 10.50L79.67 10.50L79.67 10.50Q79.16 9.60 79.16 8.51L79.16 8.51L79.16 8.51Q79.16 7.41 79.67 6.51L79.67 6.51L79.67 6.51Q80.18 5.61 81.07 5.10L81.07 5.10L81.07 5.10Q81.97 4.59 83.08 4.59L83.08 4.59ZM83.08 5.38L83.08 5.38Q82.21 5.38 81.51 5.79L81.51 5.79L81.51 5.79Q80.81 6.20 80.40 6.92L80.40 6.92L80.40 6.92Q80.00 7.63 80.00 8.51L80.00 8.51L80.00 8.51Q80.00 9.39 80.40 10.11L80.40 10.11L80.40 10.11Q80.81 10.82 81.51 11.23L81.51 11.23L81.51 11.23Q82.21 11.63 83.08 11.63L83.08 11.63L83.08 11.63Q83.94 11.63 84.64 11.23L84.64 11.23L84.64 11.23Q85.34 10.82 85.74 10.11L85.74 10.11L85.74 10.11Q86.14 9.39 86.14 8.51L86.14 8.51L86.14 8.51Q86.14 7.63 85.74 6.92L85.74 6.92L85.74 6.92Q85.34 6.20 84.64 5.79L84.64 5.79L84.64 5.79Q83.94 5.38 83.08 5.38L83.08 5.38ZM94.86 11.72L94.86 11.72Q94.96 11.83 94.96 11.97L94.96 11.97L94.96 11.97Q94.96 12.12 94.81 12.26L94.81 12.26L94.81 12.26Q94.67 12.38 94.56 12.38L94.56 12.38L94.56 12.38Q94.39 12.38 94.26 12.21L94.26 12.21L91.22 8.50L89.92 9.69L89.92 11.91L89.92 11.91Q89.92 12.10 89.81 12.21L89.81 12.21L89.81 12.21Q89.70 12.33 89.50 12.33L89.50 12.33L89.50 12.33Q89.32 12.33 89.20 12.21L89.20 12.21L89.20 12.21Q89.08 12.10 89.08 11.91L89.08 11.91L89.08 1.82L89.08 1.82Q89.08 1.62 89.20 1.51L89.20 1.51L89.20 1.51Q89.32 1.40 89.50 1.40L89.50 1.40L89.50 1.40Q89.70 1.40 89.81 1.51L89.81 1.51L89.81 1.51Q89.92 1.62 89.92 1.82L89.92 1.82L89.92 8.67L94.26 4.72L94.26 4.72Q94.40 4.61 94.53 4.61L94.53 4.61L94.53 4.61Q94.67 4.61 94.79 4.75L94.79 4.75L94.79 4.75Q94.92 4.87 94.92 5.01L94.92 5.01L94.92 5.01Q94.92 5.15 94.78 5.28L94.78 5.28L91.81 7.98L94.86 11.72Z"></path></g><!----><!----></svg>